<?xml version="1.0" encoding="UTF-8" standalone="no"?>
<!-- Created with Inkscape (http://www.inkscape.org/) -->

<svg
   xmlns:dc="http://purl.org/dc/elements/1.1/"
   xmlns:cc="http://creativecommons.org/ns#"
   xmlns:rdf="http://www.w3.org/1999/02/22-rdf-syntax-ns#"
   xmlns:svg="http://www.w3.org/2000/svg"
   xmlns="http://www.w3.org/2000/svg"
   xmlns:sodipodi="http://sodipodi.sourceforge.net/DTD/sodipodi-0.dtd"
   xmlns:inkscape="http://www.inkscape.org/namespaces/inkscape"
   width="420"
   height="12"
   id="svg2"
   version="1.1"
   inkscape:version="0.48.1 r9760"
   sodipodi:docname="Decorative text divider 5.svg">
  <defs
     id="defs4" />
  <sodipodi:namedview
     id="base"
     pagecolor="#ffffff"
     bordercolor="#666666"
     borderopacity="1.0"
     inkscape:pageopacity="0.0"
     inkscape:pageshadow="2"
     inkscape:zoom="2"
     inkscape:cx="182.19744"
     inkscape:cy="20.58753"
     inkscape:document-units="px"
     inkscape:current-layer="layer1"
     showgrid="true"
     inkscape:window-width="1680"
     inkscape:window-height="1028"
     inkscape:window-x="1439"
     inkscape:window-y="0"
     inkscape:window-maximized="1">
    <inkscape:grid
       type="xygrid"
       id="grid2985"
       empspacing="5"
       visible="true"
       enabled="true"
       snapvisiblegridlinesonly="true" />
  </sodipodi:namedview>
  <metadata
     id="metadata7">
    <rdf:RDF>
      <cc:Work
         rdf:about="">
        <dc:format>image/svg+xml</dc:format>
        <dc:type
           rdf:resource="http://purl.org/dc/dcmitype/StillImage" />
        <dc:title></dc:title>
      </cc:Work>
    </rdf:RDF>
  </metadata>
  <g
     inkscape:label="Layer 1"
     inkscape:groupmode="layer"
     id="layer1"
     transform="translate(0,-1040.3622)">
    <path
       style="fill:#000000;fill-opacity:1;stroke:none"
       d="m 147.9375,1041.2687 c -4.69071,0.3854 -24.51869,4.581 -130.5625,5.0625 l -17.59375,0 c 3.121297,0 5.790417,0.025 8.78125,0.031 -2.990833,0.01 -5.659953,0.031 -8.78125,0.031 l 17.59375,0 c 131.83908,0.5985 130.21717,7.1966 132.40625,4.4375 4.55214,-3.4662 10.30084,-4.0958 14.46875,-4.4375 l 0.53125,0 c -0.063,0 -0.12372,-0.027 -0.1875,-0.031 0.0637,0 0.12465,-0.027 0.1875,-0.031 l -0.53125,0 c -4.16791,-0.3417 -9.91661,-0.9713 -14.46875,-4.4375 -0.42831,-0.5399 -0.70273,-0.7188 -1.84375,-0.625 z m 122.78125,0 c -0.44912,0.06 -0.65196,0.2651 -0.9375,0.625 -4.55214,3.4662 -10.30084,4.0958 -14.46875,4.4375 l -0.53125,0 c -0.0519,0 -0.1044,0 -0.15625,0 0.11317,0.01 0.22781,0.023 0.34375,0.031 -0.0638,0 -0.12455,0.027 -0.1875,0.031 l 0.53125,0 c 4.16791,0.3417 9.91661,0.9713 14.46875,4.4375 2.18908,2.7591 0.56717,-3.839 132.40625,-4.4375 l 17.59375,0 c -3.1213,0 -5.79042,-0.025 -8.78125,-0.031 2.99083,-0.01 5.65995,-0.031 8.78125,-0.031 l -17.59375,0 c -114.64224,-0.5205 -128.47468,-5.4632 -131.46875,-5.0625 z m -16.09375,5.0625 c -0.0717,0 -0.14825,0 -0.21875,0 -0.29057,-0.017 -0.54293,-0.021 -0.8125,-0.031 -4.57595,-0.6705 -8.8125,-4.9062 -8.8125,-4.9062 -4.08733,3.9858 -8.67706,4.8027 -9.625,4.9375 l -0.375,0 c 0,0 0.15931,0.028 0.1875,0.031 -0.0282,0 -0.1875,0.031 -0.1875,0.031 l 0.375,0 c 0.94794,0.1348 5.53767,0.9517 9.625,4.9375 0,0 4.25627,-4.2501 8.84375,-4.9063 0.25903,-0.01 0.50301,-0.015 0.78125,-0.031 -0.0734,0 -0.14544,-0.026 -0.21875,-0.031 0.14565,-0.011 0.29164,-0.028 0.4375,-0.031 z m -19.84375,0.062 c -0.0215,-0.011 -0.041,-0.021 -0.0625,-0.031 0.0216,-0.011 0.0408,-0.02 0.0625,-0.031 l -0.125,0 c -9.91416,-4.9356 -14.9181,-4.9375 -24.875,-4.9375 -9.9569,0 -14.96084,0 -24.875,4.9375 l -0.125,0 c 0.0217,0.011 0.0409,0.02 0.0625,0.031 -0.0215,0.011 -0.041,0.021 -0.0625,0.031 l 0.125,0 c 9.91359,4.9352 14.91839,4.9375 24.875,4.9375 9.95661,0 14.96141,0 24.875,-4.9375 z m -50,0 c 0,0 -0.15931,-0.028 -0.1875,-0.031 0.0282,0 0.1875,-0.031 0.1875,-0.031 l -0.375,0 c -0.94794,-0.1348 -5.53767,-0.9517 -9.625,-4.9375 0,0 -4.23655,4.2357 -8.8125,4.9062 -0.26957,0.01 -0.52193,0.014 -0.8125,0.031 0.0733,0 0.14555,0.026 0.21875,0.031 -0.0733,0.01 -0.14538,0.028 -0.21875,0.031 0.27824,0.016 0.52222,0.021 0.78125,0.031 4.58748,0.6562 8.84375,4.9063 8.84375,4.9063 4.08733,-3.9858 8.67706,-4.8027 9.625,-4.9375 l 0.375,0 z"
       id="path2987"
       inkscape:connector-curvature="0"
       sodipodi:nodetypes="cccccccccccccccccsccccccccccccccccccccccccccccccscccccscccccccccccccccc" />
  </g>
</svg>
